<?xml version="1.0" standalone="no"?>
<!DOCTYPE svg PUBLIC "-//W3C//DTD SVG 20010904//EN"
 "http://www.w3.org/TR/2001/REC-SVG-20010904/DTD/svg10.dtd">
<svg version="1.0" xmlns="http://www.w3.org/2000/svg"
 width="1024.000000pt" height="1024.000000pt" viewBox="0 0 1024.000000 1024.000000"
 preserveAspectRatio="xMidYMid meet">

<g transform="translate(0.000000,1024.000000) scale(0.100000,-0.100000)"
fill="#000000" stroke="none">
<path d="M7805 9496 c-43 -19 -1525 -1506 -1552 -1558 -44 -80 -22 -162 56
-215 44 -30 89 -37 141 -23 38 10 126 95 804 766 418 415 766 767 773 782 17
37 16 127 -1 160 -44 85 -141 123 -221 88z"/>
<path d="M8881 8994 c-48 -21 -1505 -1476 -1531 -1530 -22 -45 -26 -104 -9
-137 22 -42 74 -87 111 -98 49 -13 101 1 158 42 69 50 1478 1450 1495 1486 19
40 19 116 0 152 -20 39 -69 78 -113 91 -49 13 -70 12 -111 -6z"/>
<path d="M4510 7950 c-540 -62 -664 -82 -830 -129 -436 -126 -905 -426 -1127
-721 -23 -30 -93 -137 -156 -236 -142 -226 -188 -287 -452 -599 -380 -451
-446 -540 -555 -760 -131 -266 -178 -440 -187 -695 -5 -169 -1 -205 61 -504
43 -204 53 -324 66 -736 10 -359 24 -446 99 -625 85 -204 212 -352 546 -640
201 -173 261 -236 522 -550 98 -119 249 -266 371 -364 245 -196 589 -294 1167
-331 88 -6 286 -22 440 -36 440 -41 654 -28 910 57 132 44 293 126 432 221
379 258 509 343 613 398 302 162 444 260 630 436 116 111 195 209 291 366 153
245 220 413 294 728 38 159 90 315 175 519 150 363 187 523 215 936 7 97 -5
216 -35 362 -41 199 -100 328 -271 600 -164 260 -200 333 -278 569 -82 248
-119 342 -172 444 -84 162 -240 336 -395 441 -44 29 -160 90 -259 135 -99 45
-343 163 -543 263 -447 224 -654 318 -827 376 -259 89 -458 108 -745 75z m522
-389 c165 -45 206 -64 1028 -461 168 -81 367 -175 443 -210 146 -67 224 -115
295 -183 105 -100 197 -270 263 -482 116 -374 126 -394 421 -877 123 -201 176
-369 185 -588 12 -288 -45 -551 -196 -908 -77 -180 -120 -310 -177 -531 -58
-226 -93 -332 -155 -461 -77 -161 -168 -290 -293 -416 -168 -168 -309 -267
-616 -434 -162 -87 -245 -140 -449 -283 -287 -201 -422 -275 -548 -302 -223
-46 -423 -55 -684 -31 -85 8 -235 20 -334 26 -464 28 -537 36 -725 86 -132 36
-328 118 -414 174 -81 53 -192 166 -286 290 -220 291 -345 424 -600 637 -225
187 -323 301 -401 468 -22 47 -52 130 -66 183 -25 93 -26 114 -33 472 -9 435
-12 460 -102 843 -42 180 -25 376 49 577 88 238 212 422 565 837 249 293 406
501 528 698 96 154 110 173 188 256 131 140 334 280 577 400 233 114 365 149
745 194 118 15 258 32 310 40 139 20 382 13 482 -14z"/>
<path d="M3662 6739 c-165 -32 -315 -168 -357 -323 -65 -238 107 -474 358
-493 215 -16 426 149 467 367 40 206 -105 410 -319 450 -61 11 -88 11 -149 -1z"/>
<path d="M5480 6699 c-174 -14 -328 -88 -466 -224 -81 -80 -97 -102 -142 -195
-67 -137 -87 -235 -79 -380 3 -58 13 -132 22 -165 39 -142 139 -297 249 -386
72 -59 216 -133 301 -154 268 -68 558 19 745 222 80 87 125 160 161 263 146
412 -75 855 -495 990 -80 26 -194 37 -296 29z"/>
<path d="M2459 5156 c-185 -51 -335 -221 -362 -409 -13 -92 7 -209 50 -296 62
-124 221 -239 367 -264 139 -24 313 38 427 152 99 100 139 201 139 356 0 215
-142 391 -369 459 -64 19 -186 20 -252 2z"/>
<path d="M6596 4834 c-149 -47 -235 -176 -224 -334 9 -124 85 -237 195 -292
40 -19 63 -23 143 -23 83 0 101 4 145 27 163 85 230 281 151 442 -70 143 -262
227 -410 180z"/>
<path d="M4050 4524 c-114 -31 -208 -107 -266 -217 -38 -71 -39 -73 -39 -182
0 -91 4 -121 23 -171 59 -153 201 -265 358 -281 61 -7 177 17 249 51 67 31
139 106 178 186 31 62 32 69 32 185 -1 160 -20 213 -114 306 -122 121 -268
164 -421 123z"/>
<path d="M5409 3576 c-129 -36 -267 -153 -328 -278 -113 -231 -17 -524 213
-653 209 -117 463 -75 628 102 145 156 174 405 69 588 -62 108 -183 202 -310
239 -65 19 -206 20 -272 2z"/>
<path d="M3027 3076 c-122 -45 -197 -152 -197 -279 0 -94 24 -152 89 -218 71
-71 133 -94 232 -87 79 6 136 35 192 97 55 60 70 98 75 182 4 67 1 83 -23 138
-30 67 -79 117 -147 152 -54 28 -166 36 -221 15z"/>
<path d="M4157 2386 c-142 -51 -219 -201 -173 -334 21 -59 53 -98 109 -134 67
-43 169 -51 244 -19 141 61 201 228 128 360 -36 66 -85 107 -149 126 -61 18
-109 18 -159 1z"/>
<path d="M9263 7823 c-49 -28 -1451 -1420 -1474 -1464 -25 -50 -24 -105 4
-159 30 -61 76 -90 142 -90 40 0 61 6 91 26 21 15 314 297 649 628 336 331
652 642 704 691 100 96 130 145 131 211 0 124 -142 214 -247 157z"/>
</g>
</svg>
